PathFileType	4	(X/Y/Z)	Walk1_0-155.trc
DataRate	CameraRate	NumFrames	NumMarkers	Units	OrigDataRate	OrigDataStartFrame	OrigNumFrames
30	30	9	22	m	30	58	155
Frame#	Time	Hip			RHip			RKnee			RAnkle			RBigToe			RSmallToe			RHeel			LHip			LKnee			LAnkle			LBigToe			LSmallToe			LHeel			Neck			Head			Nose			RShoulder			RElbow			RWrist			LShoulder			LElbow			LWrist		
		X1	Y1	Z1	X2	Y2	Z2	X3	Y3	Z3	X4	Y4	Z4	X5	Y5	Z5	X6	Y6	Z6	X7	Y7	Z7	X8	Y8	Z8	X9	Y9	Z9	X10	Y10	Z10	X11	Y11	Z11	X12	Y12	Z12	X13	Y13	Z13	X14	Y14	Z14	X15	Y15	Z15	X16	Y16	Z16	X17	Y17	Z17	X18	Y18	Z18	X19	Y19	Z19	X20	Y20	Z20	X21	Y21	Z21	X22	Y22	Z22
59	1.9666666666666666	-1.4436155918758715	0.8710171238507437	0.3533192680220411	-1.4360239260630367	0.8572957392057042	0.4539470611000058	-1.3001886787302024	0.5082418887720777	0.48301644124397025	-1.667719079592067	0.25702688843169974	0.4475215995572126	-1.646687277589564	0.05019521454042964	0.4723487186206039	-1.6857912018529626	0.08546230801361006	0.5061103673457238	-1.7134825792654522	0.22462815503510777	0.48898579217075294	-1.4241889265230998	0.8595618493587563	0.2483591023016185	-1.3365442579979492	0.4809410862296606	0.2611825517579913	-1.3608278392377868	0.10113073281284177	0.27916218764377243	-1.1356186523704077	0.031700752185012386	0.30263610190558465	-1.1835097999705997	0.02548219382026458	0.22930354558298044	-1.3967956058395972	0.05192892965846989	0.27186692031944937	-1.471021098502035	1.5597869818781083	0.3229373514770873	-1.4179036652124015	1.821697428359091	0.32891159882398685	-1.3255018141024384	1.6757754249950423	0.34842949766892484	-1.498553564569745	1.4498571008056187	0.5110548715340542	-1.4513398115282887	1.1249602795654177	0.5604172307104532	-1.3697255544189166	0.876969261892129	0.6095281754932147	-1.5072551294825631	1.4417028701911478	0.11873741497171224	-1.4796568670708605	1.1253967361076305	0.05983840777923845	-1.4013273365077479	0.8673272347046623	0.07792641486987038
60	2.0	-1.412194053861402	0.8826929741704332	0.3441439815688856	-1.4009159060542857	0.8684344817832932	0.4434701795345457	-1.2335816517592246	0.5316540600857851	0.4725408371505249	-1.582389800605631	0.2677165022157083	0.4388658165157164	-1.5202669625220493	0.08089100047930987	0.4717719966255323	-1.5626527402032289	0.10628008395883896	0.5025683679370889	-1.6666755241946627	0.2645273082296677	0.42306888162977063	-1.4041285094879952	0.869203393637888	0.2394844865039109	-1.3308321936718444	0.4960734383649485	0.24851696222502595	-1.3614414628329925	0.1087307841935391	0.27111420867056757	-1.13946385513843	0.03182089971124853	0.2962223297437795	-1.1765822623849997	0.032499463555092055	0.2334796088162693	-1.409191593238803	0.030553420470197323	0.29550866480626425	-1.4345525061539812	1.5708704188703952	0.321401014862841	-1.3886212407862124	1.8249977969438775	0.33347421643326064	-1.2889249208307347	1.6851041943398415	0.3420942848910709	-1.4679751147715965	1.454390110418956	0.5096456316247457	-1.4045488782761657	1.133215108755775	0.5748300255382528	-1.3580063355453833	0.8776277552777885	0.6026797394165929	-1.4704672167430124	1.4535575637860356	0.11966351292790404	-1.4367247730696564	1.1377116828815168	0.0554060740194107	-1.314635032893667	0.8858055089799864	0.07253773869834354
61	2.033333333333333	-1.3834639091437937	0.8919533182753581	0.3422184901837552	-1.3628534529024787	0.8781772389828018	0.4563577384163958	-1.1613826262598879	0.555655572310307	0.4609969506313577	-1.4796330971721605	0.2825955803560656	0.44051106664963313	-1.4058795004371973	0.10824563339743082	0.4786984119138624	-1.4609559924628261	0.11004660353937296	0.49063435399431526	-1.566371169437922	0.2677788988588048	0.42489229289351427	-1.3691386546683315	0.8758995008747881	0.24336519499285686	-1.3248252364266924	0.49781987735439737	0.24949165610194532	-1.3618065922647025	0.11205174521515339	0.2754669345326165	-1.1304385180335588	0.03531636774629236	0.29475667361261787	-1.184939933803003	0.027032010598547127	0.23004742418143675	-1.4014197975549652	0.032116821782052864	0.30673688553163414	-1.399984924925686	1.5751874747170909	0.3210781191440372	-1.3462530270760784	1.8337233228199967	0.33280549093134487	-1.2439204538166162	1.678929450453229	0.32465999989823463	-1.4323723610351804	1.4614023169935388	0.5157922860997919	-1.40679112377064	1.1431137927441068	0.5614890289919592	-1.3543435051682522	0.8879154750039376	0.6016259848809028	-1.4370201945273984	1.4560204460610129	0.10772661064345247	-1.3940139162147882	1.14002803533115	0.0469263528142967	-1.2588935326348494	0.9079384753505417	0.06931136802045701
62	2.066666666666667	-1.350323203031336	0.8961731452023038	0.33740631115342157	-1.3300024025218486	0.8755365995910083	0.44914372999296925	-1.103489981679171	0.5698878275102995	0.45168359529478835	-1.3747822639230824	0.2698640493456599	0.440051719696123	-1.2458861731895128	0.06401681825437351	0.4768972404786031	-1.2184235283627693	0.05541377632583891	0.48622293090472957	-1.4459336234663422	0.23548349014137474	0.4337487093319469	-1.336685296508772	0.8753267097408899	0.2347120096867713	-1.3140277296225777	0.4929389732151953	0.2586518590592301	-1.3655490434641382	0.10648756121838567	0.27252567274302425	-1.1377247828065291	0.03146413236815076	0.2939915460202833	-1.1907468380061685	0.029681998742468293	0.23064405436363075	-1.419944697454923	0.026505464824179963	0.30467208204166646	-1.3638230844552304	1.5778449368749354	0.3215874938808391	-1.3132407934273258	1.8382884534947992	0.34157900721075707	-1.207449773465913	1.6824468951821938	0.32400416686966144	-1.4022852988069001	1.462182952397446	0.5187214856886475	-1.3793387436995255	1.1469364608104056	0.559733778323752	-1.348751769248383	0.888011703588623	0.604837364191377	-1.4009489776560595	1.462111690220872	0.10878954805315597	-1.3161329010972194	1.1463175911491905	0.08116511026402433	-1.2220343492704047	0.9112127890190552	0.0690775460894293
63	2.1	-1.3189531509262058	0.8951351147805223	0.33820789579235694	-1.297128801321243	0.8773134670689345	0.4544631569055152	-1.05807761613406	0.5787295164906232	0.44385174869772176	-1.2962123753791217	0.22121864057799273	0.4270898330412015	-1.1249641640933297	0.09989218763470141	0.4708453402844269	-1.185702532139664	0.08863906777457867	0.5005764060586931	-1.3640313678430647	0.17637668588879216	0.420927197981656	-1.3106330150590053	0.8707249393693691	0.23825202190627695	-1.2982099207362987	0.4937765737647125	0.2581578574929484	-1.3586327151740238	0.10725439563008522	0.2863151378885545	-1.1676611750219867	0.017745295793341432	0.3066082450355551	-1.1944072168864792	0.030034719859748756	0.23534503538843618	-1.4065310082240652	0.0274666147985676	0.30281345471334464	-1.3289168167652312	1.5811951894463874	0.31912972558768976	-1.2769220483148214	1.8406822089268826	0.32710466754303913	-1.1671051504269194	1.6865804100905784	0.3247919215592018	-1.3728456991544957	1.4647195644320363	0.5150610672866914	-1.3691935690436077	1.1488372539997924	0.5626937525656519	-1.3333802667941108	0.8975284161286319	0.6000232328998423	-1.3678729083522894	1.4633176646728963	0.1082048842170305	-1.2741633842182989	1.1524115978794816	0.07791419771832685	-1.1602573379171581	0.9238686134764484	0.06913520666316623
64	2.1333333333333333	-1.2784312561553455	0.8957191094065416	0.3388146840353717	-1.258457525775144	0.8784079766648036	0.4627977619506766	-1.0160510979497144	0.575292975200983	0.43714811182630064	-1.1784976073766082	0.19140003933795227	0.43739296821173407	-0.9974949623557388	0.08805423851580259	0.4662182180553208	-1.039344712799744	0.0813997044406836	0.515692922645814	-1.239714804207075	0.1158986405814436	0.437796662379101	-1.2707472833758744	0.8761866461337503	0.23845623720027806	-1.273796738247512	0.48724456782323633	0.2564846267047935	-1.3558434247242668	0.10824372440433642	0.2712179386360096	-1.147006543358939	0.027481150732505764	0.28906497602625225	-1.1905983054770584	0.03173357101007004	0.23300073943551722	-1.4047188527008894	0.03326285665322691	0.30343008774440533	-1.2911924784359812	1.5813427628508399	0.3215053855327177	-1.2252012974705617	1.8483371520480103	0.337034764693502	-1.1319137704494764	1.6811202662978018	0.3228916672681739	-1.3363100312498348	1.4644781951398747	0.5177527092443305	-1.3491356249112383	1.1543239005322776	0.5628510239771698	-1.3228711925999683	0.8945538840780994	0.6051752881309309	-1.3279160210697813	1.4663671558748461	0.10608375362070234	-1.2335518139861872	1.1518123083645608	0.07203876824022412	-1.0958948564209572	0.9304292863712856	0.07356606723100984
65	2.1666666666666665	-1.2421174161103548	0.8902483381946135	0.3389013073548861	-1.2235092247203034	0.8748064673654775	0.4558562354245796	-1.0018605928320143	0.5948788702800296	0.4332984237995341	-1.0786821450911417	0.1820504036409087	0.43664483404106086	-0.869162592587558	0.08879222905881075	0.4492189137543965	-0.9131829659901332	0.07858510951589191	0.5034129220061941	-1.123829098767572	0.0993789345833433	0.4349733608399987	-1.2466812045912035	0.86705256478791	0.236215922074999	-1.282719730099254	0.48615681183274123	0.24247815380440002	-1.3487594749795762	0.09722271297521695	0.28417180530473607	-1.1507440765757764	0.029800458358126496	0.28347788138801017	-1.1955068296219533	0.033563313856525515	0.2399051514888957	-1.4086147035369805	0.04077804111889173	0.3028813456618333	-1.2537827450439867	1.583158698342825	0.3181549761317078	-1.1930713672607216	1.831098732585831	0.3268850940090188	-1.0918659451658748	1.6826603830621043	0.3237325626004102	-1.3033739115943108	1.4622134992655158	0.5140618386597535	-1.3217605869261941	1.1529877919267133	0.5630358419799126	-1.3052262314572187	0.888335851694945	0.6016457663014767	-1.2903985498442303	1.46558386631331	0.10809274466698611	-1.1931965720047817	1.15229753962925	0.07134662945883279	-1.039774859292596	0.9407247396436866	0.0769725518245241
66	2.2	-1.2025416428357478	0.8900433477161	0.33498147780591003	-1.1875793906657681	0.8780902598447723	0.44812407216607775	-0.9821966207914667	0.5863593321052659	0.41944260800249683	-0.9639620359657614	0.17248123678263697	0.42606814046116853	-0.7400823778567996	0.09672516216955553	0.42537712616730844	-0.7430885761022108	0.08509857729088466	0.5103401326734343	-0.9961124778624144	0.08385610679539686	0.42528428233856946	-1.2125099198028058	0.8715402888538788	0.22851807136431843	-1.2675893107250693	0.4876829872097776	0.2466901553731078	-1.3482474716123058	0.10074106502450657	0.2876369976569413	-1.1771159573414998	0.022695061302831505	0.31967033999303907	-1.2066219710217878	0.023786640142263116	0.2634671693018154	-1.3964338985656597	0.02887111825683316	0.3138397751013393	-1.2174789869198988	1.5750900329809001	0.3186604027687398	-1.141353715833239	1.847082298800323	0.3458683940996283	-1.0540271335711133	1.6773777054400114	0.3254055339808263	-1.2664082735646573	1.4561052146813236	0.510165313230875	-1.2913429520498994	1.1458739703425178	0.5656743654381555	-1.2812042002295534	0.8850937028847221	0.6023022281679367	-1.2531614545812624	1.4640986894898473	0.10931245099032047	-1.1534350700955909	1.1505189920720438	0.07115986620193773	-0.9867521382709608	0.9489724335318543	0.0784387119849336
67	2.2333333333333334	-1.1636289136156694	0.8836019024158098	0.3331892159977202	-1.1469935970295828	0.8622441208692418	0.4462120204059549	-0.9646649849821216	0.557131551459016	0.41508959856925465	-0.8634879129361898	0.16057290690248313	0.4210638379019845	-0.6562885485776087	0.12557533583233735	0.4098565067331582	-0.6598267185203519	0.10531942206855267	0.5025384051944204	-0.8755599944751009	0.06434430346510002	0.4168345047066314	-1.178410755769893	0.8636104071602203	0.22736599772089466	-1.252994581261813	0.4854440643262796	0.25493496706249574	-1.348907032480013	0.09767433747070724	0.2914902507732334	-1.1488886191601457	0.026323764976997194	0.3123529176897869	-1.202485472572739	0.02714969793231251	0.25249577125239103	-1.396378441135557	0.03925239755725679	0.3040473515001901	-1.1777276956821177	1.5715802698676056	0.31861375743801484	-1.1110073954501134	1.8374339905073278	0.3406182975823476	-1.0128581981093414	1.6725887016446819	0.3270661005147691	-1.2280754834962302	1.4512194718596498	0.5132833800648164	-1.254314601338413	1.1448248748966088	0.5654058553491969	-1.2499552284656767	0.8866099902959845	0.603856488160875	-1.212497884203528	1.458222287086526	0.10987925718996946	-1.1148419219955255	1.1500917299340618	0.07061221957081415	-0.9392041921605803	0.953310885717181	0.08211495019971676
